<svg xmlns="http://www.w3.org/2000/svg" width="16" height="17" fill="none" viewBox="0 0 16 17"><path fill="#75B0DE" d="M15.75 2.063v12.374c0 .95-.773 1.688-1.688 1.688H1.688c-.95 0-1.688-.738-1.688-1.688V2.063C0 1.147.738.375 1.688.375h12.374c.915 0 1.688.773 1.688 1.688Zm-1.688 12.164V2.273a.227.227 0 0 0-.21-.21H1.898c-.14 0-.21.105-.21.21v11.954c0 .14.07.21.21.21h11.954c.105 0 .21-.07.21-.21ZM7.875 3.398c.809 0 1.477.668 1.477 1.477 0 .844-.668 1.477-1.477 1.477-.844 0-1.477-.633-1.477-1.477 0-.809.633-1.477 1.477-1.477Zm1.969 8.93c0 .246-.211.422-.422.422H6.328a.406.406 0 0 1-.422-.422v-.844c0-.21.176-.421.422-.421h.422v-2.25h-.422a.406.406 0 0 1-.422-.422v-.844c0-.211.176-.422.422-.422h2.25c.211 0 .422.21.422.422v3.516h.422c.21 0 .422.21.422.421v.844Z"/></svg>