<svg xmlns="http://www.w3.org/2000/svg" width="13" height="19" fill="none" viewBox="0 0 13 19"><path fill="#008531" d="M6.688 3.063c.28 0 .562.28.562.562a.578.578 0 0 1-.563.563 2.243 2.243 0 0 0-2.25 2.25.578.578 0 0 1-.562.562.555.555 0 0 1-.563-.563c0-1.828 1.512-3.375 3.376-3.375ZM3.874 16.422v-1.547h5.59v1.547c0 .105-.035.21-.07.316l-.88 1.266a.512.512 0 0 1-.456.246H5.28a.512.512 0 0 1-.457-.246l-.879-1.266c-.07-.105-.07-.21-.07-.316ZM6.688.25a6.197 6.197 0 0 1 6.187 6.188c0 1.582-.598 2.988-1.547 4.078-.598.668-1.512 2.074-1.828 3.234H7.812c0-.14.036-.352.07-.492.177-.633.81-2.285 2.18-3.832.704-.844 1.126-1.899 1.126-2.989 0-2.46-2.04-4.5-4.5-4.5-2.426 0-4.536 1.934-4.5 4.5 0 1.09.386 2.145 1.09 2.989 1.406 1.582 2.003 3.199 2.179 3.832.07.176.07.351.07.492H3.84c-.317-1.16-1.23-2.566-1.828-3.234A6.138 6.138 0 0 1 .5 6.437C.5 3.168 3.066.25 6.688.25Z"/></svg>