<svg xmlns="http://www.w3.org/2000/svg" width="14" height="15" fill="none" viewBox="0 0 14 15"><path fill="#008531" d="M7 .469c3.719 0 6.781 3.062 6.781 6.781 0 3.746-3.062 6.781-6.781 6.781A6.78 6.78 0 0 1 .219 7.25C.219 3.531 3.254.469 7 .469ZM7 1.78A5.467 5.467 0 0 0 1.531 7.25 5.45 5.45 0 0 0 7 12.719a5.467 5.467 0 0 0 5.469-5.469c0-3.008-2.461-5.469-5.469-5.469Zm3.828 3.582c.11.11.11.328 0 .465l-4.73 4.676a.315.315 0 0 1-.465 0L3.145 7.988c-.11-.11-.11-.328 0-.465l.628-.601a.315.315 0 0 1 .465 0l1.64 1.64 3.856-3.828c.137-.136.356-.136.465 0l.63.63Z"/></svg>