<svg xmlns="http://www.w3.org/2000/svg" width="18" height="17" fill="none" viewBox="0 0 18 17"><path fill="#34302D" d="M6.195 13.503c0 .066-.066.1-.165.1-.1.032-.166-.034-.166-.1s.067-.132.166-.132.165.066.165.132Zm-1.024-.165c.033-.066.132-.099.23-.066.1.033.133.1.133.165a.159.159 0 0 1-.198.066c-.1 0-.165-.099-.165-.165Zm1.486-.033c.066-.033.166.033.166.1.033.065-.034.098-.133.131s-.198 0-.198-.066c0-.099.066-.165.165-.165ZM8.805.62c4.592 0 8.325 3.502 8.325 8.06 0 3.668-2.247 6.806-5.55 7.897-.43.099-.595-.166-.595-.397 0-.264.033-1.652.033-2.742 0-.793-.264-1.288-.562-1.553 1.85-.198 3.8-.462 3.8-3.634 0-.925-.33-1.354-.86-1.949.067-.23.364-1.09-.098-2.246-.694-.231-2.28.892-2.28.892-.66-.198-1.354-.264-2.081-.264-.694 0-1.388.066-2.048.264 0 0-1.62-1.09-2.28-.892C4.147 5.21 4.411 6.07 4.51 6.3c-.529.595-.793 1.024-.793 1.95 0 3.171 1.883 3.435 3.733 3.633-.264.232-.462.595-.528 1.124-.496.231-1.685.594-2.412-.694a1.77 1.77 0 0 0-1.288-.859c-.793 0-.034.529-.034.529.53.23.892 1.189.892 1.189.496 1.486 2.809.991 2.809.991v2.048c0 .198-.133.463-.562.397C3.023 15.485.744 12.347.744 8.679c0-4.558 3.502-8.06 8.06-8.06ZM3.948 12.017c.033-.033.1 0 .166.033.066.066.066.165.033.198-.067.033-.133 0-.199-.033-.033-.066-.066-.165 0-.198Zm-.363-.265c.033-.033.066-.033.132 0s.1.066.1.1c-.034.066-.1.066-.166.032-.066-.033-.1-.066-.066-.132Zm1.057 1.19c.066-.066.165-.033.231.033s.066.165.033.198c-.033.066-.132.033-.198-.033-.099-.066-.099-.165-.066-.198Zm-.363-.496c.066-.033.132 0 .198.066.033.066.033.165 0 .198-.066.033-.132 0-.198-.066s-.066-.165 0-.198Z"/></svg>