<svg xmlns="http://www.w3.org/2000/svg" width="22" height="20" fill="none" viewBox="0 0 22 20"><path fill="#EA9806" d="M9.219 8.457c0-.246.176-.457.422-.457h1.933c.246 0 .422.21.422.457l-.246 3.938c0 .21-.21.386-.422.386H9.887c-.246 0-.422-.14-.422-.386l-.246-3.938Zm2.883 6.293c0 .844-.668 1.477-1.477 1.477-.844 0-1.477-.633-1.477-1.477 0-.809.633-1.477 1.477-1.477.809 0 1.477.668 1.477 1.477Zm-.036-12.656 8.438 14.66c.633 1.125-.176 2.496-1.477 2.496H2.187c-1.3 0-2.109-1.406-1.476-2.496l8.437-14.66c.633-1.125 2.286-1.09 2.918 0ZM2.363 17.28c-.105.14 0 .282.176.282h16.137c.176 0 .281-.141.176-.282L10.8 3.29c-.106-.14-.281-.14-.387 0l-8.05 13.992Z"/></svg>