<svg xmlns="http://www.w3.org/2000/svg" width="18" height="16" fill="none" viewBox="0 0 18 16"><path fill="#34302D" d="M17.423 8.389a.553.553 0 0 1-.224-.048l-4.696-2.098a.547.547 0 0 1 0-.997l4.696-2.09a.549.549 0 0 1 .723.276.548.548 0 0 1-.277.72l-3.579 1.593 3.58 1.6a.546.546 0 0 1-.223 1.044ZM11.022 15.999c-5.163 0-9.678-3.477-10.976-8.455a.547.547 0 0 1 1.059-.275 10.242 10.242 0 0 0 9.917 7.639.547.547 0 1 1 0 1.09ZM9.137 11.467a.547.547 0 0 1-.547-.546V.547a.547.547 0 0 1 1.094 0V10.92a.547.547 0 0 1-.547.546Z"/></svg>