<svg xmlns="http://www.w3.org/2000/svg" width="423" height="423" fill="none" viewBox="0 0 423 423"><g clip-path="url(#a)"><mask id="b" width="423" height="423" x="0" y="0" maskUnits="userSpaceOnUse" style="mask-type:luminance"><path fill="#fff" d="M423 0H0v423h423V0Z"/></mask><g mask="url(#b)"><path stroke="url(#c)" d="M330.075 303.718 237.856 211.5l92.219-92.218 92.218 92.218-92.218 92.218Zm-237.15 0L.707 211.5l92.219-92.218 92.218 92.218-92.219 92.218ZM211.5 422.293l-92.218-92.218 92.218-92.219 92.218 92.219-92.218 92.218Zm0-237.149-92.218-92.219L211.5.707l92.218 92.219-92.218 92.218Z"/></g></g><defs><linearGradient id="c" x1="289" x2="226.5" y1="37.5" y2="383" gradientUnits="userSpaceOnUse"><stop stop-color="#34302D"/><stop offset="1" stop-color="#292725" stop-opacity=".2"/></linearGradient><clipPath id="a"><path fill="#fff" d="M0 0h423v423H0z"/></clipPath></defs></svg>